<svg width="440" height="57" viewBox="0 0 440 57" fill="none" xmlns="http://www.w3.org/2000/svg">
<path d="M437.5 25C437.5 25.6667 437.458 26.3125 437.375 26.9375C437.312 27.5625 437.156 28.125 436.906 28.625C436.656 29.1042 436.292 29.5 435.812 29.8125C435.354 30.1042 434.729 30.25 433.938 30.25C433.146 30.25 432.51 30.1042 432.031 29.8125C431.573 29.5 431.219 29.1042 430.969 28.625C430.719 28.125 430.552 27.5625 430.469 26.9375C430.406 26.3125 430.375 25.6667 430.375 25L428.75 14.875V7.25C428.75 6.375 428.823 5.52083 428.969 4.6875C429.115 3.85417 429.375 3.11458 429.75 2.46875C430.125 1.82292 430.646 1.30208 431.312 0.90625C432 0.510417 432.875 0.3125 433.938 0.3125C435 0.3125 435.865 0.520833 436.531 0.9375C437.198 1.33333 437.719 1.86458 438.094 2.53125C438.469 3.17708 438.719 3.91667 438.844 4.75C438.99 5.58333 439.062 6.4375 439.062 7.3125V15L437.5 25ZM439.062 38.875C439.062 40.6458 438.615 41.9583 437.719 42.8125C436.823 43.6458 435.562 44.0625 433.938 44.0625C432.271 44.0625 430.99 43.6458 430.094 42.8125C429.198 41.9583 428.75 40.6458 428.75 38.875C428.75 37.0833 429.198 35.7812 430.094 34.9688C430.99 34.1562 432.271 33.75 433.938 33.75C435.667 33.75 436.948 34.1562 437.781 34.9688C438.635 35.7812 439.062 37.0833 439.062 38.875Z" fill="#9E9BB2"/>
<path d="M418.25 36.9375C418.25 37.8125 418.219 38.6771 418.156 39.5312C418.094 40.3646 417.906 41.1146 417.594 41.7812C417.281 42.4479 416.812 42.9896 416.188 43.4062C415.562 43.8021 414.688 44 413.562 44C412.417 44 411.521 43.8125 410.875 43.4375C410.229 43.0417 409.75 42.5729 409.438 42.0312C409.125 41.4688 408.927 40.8854 408.844 40.2812C408.781 39.6771 408.75 39.1667 408.75 38.75C408.562 39.3542 408.292 39.9688 407.938 40.5938C407.604 41.2188 407.167 41.7812 406.625 42.2812C406.083 42.7812 405.427 43.1979 404.656 43.5312C403.906 43.8438 403.021 44 402 44C400.854 44 399.708 43.8125 398.562 43.4375C397.417 43.0625 396.385 42.4375 395.469 41.5625C394.552 40.6875 393.802 39.5521 393.219 38.1562C392.656 36.7396 392.375 35 392.375 32.9375V23.875C392.375 21.7917 392.656 20.0521 393.219 18.6562C393.802 17.2396 394.552 16.1042 395.469 15.25C396.385 14.375 397.417 13.75 398.562 13.375C399.708 13 400.854 12.8125 402 12.8125C403.021 12.8125 403.906 12.9688 404.656 13.2812C405.427 13.5938 406.083 14 406.625 14.5C407.167 15 407.604 15.5625 407.938 16.1875C408.292 16.8125 408.562 17.4375 408.75 18.0625V7.375C408.75 6.47917 408.792 5.60417 408.875 4.75C408.979 3.875 409.188 3.11458 409.5 2.46875C409.833 1.80208 410.312 1.27083 410.938 0.875C411.583 0.458333 412.458 0.25 413.562 0.25C414.604 0.25 415.438 0.458333 416.062 0.875C416.688 1.27083 417.156 1.80208 417.469 2.46875C417.802 3.11458 418.01 3.875 418.094 4.75C418.198 5.60417 418.25 6.47917 418.25 7.375V36.9375ZM402 32.125C402 32.6875 402.021 33.2396 402.062 33.7812C402.104 34.3229 402.219 34.8125 402.406 35.25C402.594 35.6875 402.865 36.0417 403.219 36.3125C403.594 36.5625 404.104 36.6875 404.75 36.6875C405.562 36.6875 406.219 36.5104 406.719 36.1562C407.24 35.7812 407.646 35.2188 407.938 34.4688C408.229 33.6979 408.427 32.7396 408.531 31.5938C408.656 30.4271 408.729 29.0417 408.75 27.4375C408.75 26.7917 408.688 26.0521 408.562 25.2188C408.458 24.3646 408.26 23.5625 407.969 22.8125C407.677 22.0625 407.271 21.4271 406.75 20.9062C406.229 20.3854 405.562 20.125 404.75 20.125C404.104 20.125 403.594 20.2604 403.219 20.5312C402.865 20.7812 402.594 21.1146 402.406 21.5312C402.219 21.9479 402.104 22.4271 402.062 22.9688C402.021 23.4896 402 24.0208 402 24.5625V32.125Z" fill="#9E9BB2"/>
<path d="M386.188 36.875C386.188 37.7708 386.135 38.6458 386.031 39.5C385.927 40.3542 385.698 41.1146 385.344 41.7812C385.01 42.4479 384.521 42.9896 383.875 43.4062C383.25 43.8021 382.396 44 381.312 44C380.25 44 379.406 43.8021 378.781 43.4062C378.156 42.9896 377.677 42.4479 377.344 41.7812C377.01 41.1146 376.792 40.3542 376.688 39.5C376.604 38.6458 376.562 37.7708 376.562 36.875V24.6875C376.562 24.1042 376.531 23.5312 376.469 22.9688C376.427 22.4062 376.312 21.9167 376.125 21.5C375.938 21.0625 375.656 20.7188 375.281 20.4688C374.927 20.1979 374.438 20.0625 373.812 20.0625C372.958 20.0625 372.271 20.3438 371.75 20.9062C371.229 21.4688 370.812 22.2396 370.5 23.2188C370.208 24.1979 370.01 25.3542 369.906 26.6875C369.802 28 369.75 29.4167 369.75 30.9375V36.875C369.75 37.7708 369.698 38.6458 369.594 39.5C369.49 40.3542 369.26 41.1146 368.906 41.7812C368.573 42.4479 368.083 42.9896 367.438 43.4062C366.812 43.8021 365.958 44 364.875 44C363.812 44 362.969 43.8021 362.344 43.4062C361.719 42.9896 361.24 42.4479 360.906 41.7812C360.573 41.1146 360.354 40.3542 360.25 39.5C360.167 38.6458 360.125 37.7708 360.125 36.875V19.8125C360.125 18.9167 360.156 18.0521 360.219 17.2188C360.281 16.3646 360.469 15.6146 360.781 14.9688C361.094 14.3021 361.562 13.7708 362.188 13.375C362.833 12.9583 363.729 12.75 364.875 12.75C366.021 12.75 366.917 12.9479 367.562 13.3438C368.208 13.7188 368.688 14.1771 369 14.7188C369.333 15.2604 369.542 15.8333 369.625 16.4375C369.708 17.0417 369.75 17.5625 369.75 18C369.917 17.3958 370.177 16.7812 370.531 16.1562C370.885 15.5312 371.333 14.9688 371.875 14.4688C372.438 13.9688 373.104 13.5625 373.875 13.25C374.646 12.9167 375.542 12.75 376.562 12.75C377.708 12.75 378.854 12.9375 380 13.3125C381.146 13.6875 382.177 14.3125 383.094 15.1875C384.01 16.0625 384.75 17.2083 385.312 18.625C385.896 20.0417 386.188 21.7917 386.188 23.875V36.875Z" fill="#9E9BB2"/>
<path d="M326.062 19.875C326.062 18.9792 326.115 18.1042 326.219 17.25C326.323 16.3958 326.542 15.6354 326.875 14.9688C327.229 14.3021 327.719 13.7708 328.344 13.375C328.99 12.9583 329.854 12.75 330.938 12.75C332 12.75 332.844 12.9583 333.469 13.375C334.094 13.7708 334.573 14.3021 334.906 14.9688C335.24 15.6354 335.448 16.3958 335.531 17.25C335.635 18.1042 335.688 18.9792 335.688 19.875V32.0625C335.688 32.6667 335.708 33.25 335.75 33.8125C335.812 34.3542 335.938 34.8438 336.125 35.2812C336.312 35.6979 336.583 36.0417 336.938 36.3125C337.312 36.5625 337.812 36.6875 338.438 36.6875C339.271 36.6875 339.948 36.4062 340.469 35.8438C341.01 35.2812 341.427 34.5104 341.719 33.5312C342.031 32.5521 342.24 31.4062 342.344 30.0938C342.448 28.7604 342.5 27.3333 342.5 25.8125V19.875C342.5 18.9792 342.552 18.1042 342.656 17.25C342.76 16.3958 342.979 15.6354 343.312 14.9688C343.667 14.3021 344.156 13.7708 344.781 13.375C345.427 12.9583 346.292 12.75 347.375 12.75C348.438 12.75 349.281 12.9583 349.906 13.375C350.531 13.7708 351.01 14.3021 351.344 14.9688C351.677 15.6354 351.885 16.3958 351.969 17.25C352.073 18.1042 352.125 18.9792 352.125 19.875V36.9375C352.125 37.8333 352.094 38.7083 352.031 39.5625C351.969 40.3958 351.781 41.1458 351.469 41.8125C351.156 42.4583 350.677 42.9896 350.031 43.4062C349.406 43.8021 348.521 44 347.375 44C346.229 44 345.333 43.8125 344.688 43.4375C344.042 43.0417 343.552 42.5729 343.219 42.0312C342.906 41.4896 342.708 40.9167 342.625 40.3125C342.542 39.7083 342.5 39.1875 342.5 38.75C342.333 39.3542 342.073 39.9688 341.719 40.5938C341.365 41.2188 340.906 41.7812 340.344 42.2812C339.802 42.7812 339.146 43.1979 338.375 43.5312C337.604 43.8438 336.708 44 335.688 44C334.542 44 333.396 43.8125 332.25 43.4375C331.104 43.0625 330.073 42.4375 329.156 41.5625C328.24 40.6875 327.49 39.5417 326.906 38.125C326.344 36.7083 326.062 34.9583 326.062 32.875V19.875Z" fill="#9E9BB2"/>
<path d="M293.875 24.5C293.875 22.5833 294.135 20.9583 294.656 19.625C295.177 18.2917 295.844 17.1771 296.656 16.2812C297.49 15.3854 298.406 14.6875 299.406 14.1875C300.427 13.6875 301.427 13.3125 302.406 13.0625C303.385 12.8125 304.292 12.6562 305.125 12.5938C305.979 12.5312 306.646 12.5 307.125 12.5C307.604 12.5 308.26 12.5312 309.094 12.5938C309.927 12.6562 310.812 12.8125 311.75 13.0625C312.708 13.3125 313.667 13.6875 314.625 14.1875C315.604 14.6875 316.479 15.3854 317.25 16.2812C318.042 17.1771 318.688 18.2917 319.188 19.625C319.688 20.9583 319.938 22.5833 319.938 24.5V32.25C319.938 34.1667 319.688 35.7917 319.188 37.125C318.688 38.4583 318.042 39.5729 317.25 40.4688C316.479 41.3646 315.604 42.0625 314.625 42.5625C313.667 43.0625 312.708 43.4375 311.75 43.6875C310.812 43.9375 309.927 44.0938 309.094 44.1562C308.26 44.2188 307.604 44.25 307.125 44.25C306.646 44.25 305.979 44.2188 305.125 44.1562C304.292 44.0938 303.385 43.9375 302.406 43.6875C301.427 43.4375 300.427 43.0625 299.406 42.5625C298.406 42.0625 297.49 41.3646 296.656 40.4688C295.844 39.5729 295.177 38.4583 294.656 37.125C294.135 35.7917 293.875 34.1667 293.875 32.25V24.5ZM303.5 34.4375C303.521 35.0417 303.667 35.5729 303.938 36.0312C304.167 36.4479 304.521 36.8229 305 37.1562C305.5 37.4688 306.208 37.625 307.125 37.625C308 37.625 308.667 37.4688 309.125 37.1562C309.604 36.8229 309.958 36.4479 310.188 36.0312C310.438 35.5729 310.583 35.0417 310.625 34.4375V23.125C310.583 22.5 310.438 21.9271 310.188 21.4062C309.958 20.9896 309.604 20.6042 309.125 20.25C308.667 19.875 308 19.6875 307.125 19.6875C306.208 19.6875 305.5 19.875 305 20.25C304.521 20.6042 304.167 20.9896 303.938 21.4062C303.667 21.9271 303.521 22.5 303.5 23.125V34.4375Z" fill="#9E9BB2"/>
<path d="M285.625 12.75C286.146 12.75 286.677 12.7812 287.219 12.8438C287.76 12.9062 288.24 13.0625 288.656 13.3125C289.094 13.5625 289.448 13.9479 289.719 14.4688C289.99 14.9896 290.125 15.7083 290.125 16.625C290.125 17.4792 289.99 18.1562 289.719 18.6562C289.448 19.1354 289.094 19.5104 288.656 19.7812C288.24 20.0312 287.76 20.1979 287.219 20.2812C286.677 20.3438 286.146 20.375 285.625 20.375H283.75V36.9375C283.75 37.8542 283.698 38.7396 283.594 39.5938C283.51 40.4271 283.292 41.1771 282.938 41.8438C282.604 42.4896 282.104 43.0104 281.438 43.4062C280.792 43.8021 279.917 44 278.812 44C277.75 44 276.906 43.8021 276.281 43.4062C275.677 43.0104 275.219 42.4896 274.906 41.8438C274.594 41.1771 274.396 40.4271 274.312 39.5938C274.229 38.7396 274.188 37.8542 274.188 36.9375V20.375H272.438C271.854 20.375 271.292 20.3438 270.75 20.2812C270.229 20.1979 269.76 20.0312 269.344 19.7812C268.948 19.5104 268.625 19.1354 268.375 18.6562C268.125 18.1562 268 17.4792 268 16.625C268 15.7083 268.125 14.9896 268.375 14.4688C268.625 13.9479 268.948 13.5625 269.344 13.3125C269.76 13.0625 270.229 12.9062 270.75 12.8438C271.292 12.7812 271.854 12.75 272.438 12.75H274.188C274.188 10.9167 274.271 9.22917 274.438 7.6875C274.604 6.14583 275.01 4.83333 275.656 3.75C276.302 2.64583 277.26 1.79167 278.531 1.1875C279.802 0.5625 281.542 0.25 283.75 0.25C284.688 0.25 285.573 0.333333 286.406 0.5C287.24 0.666667 287.969 0.927083 288.594 1.28125C289.219 1.63542 289.708 2.10417 290.062 2.6875C290.438 3.25 290.625 3.9375 290.625 4.75C290.625 5.5 290.49 6.125 290.219 6.625C289.969 7.125 289.656 7.53125 289.281 7.84375C288.906 8.15625 288.49 8.375 288.031 8.5C287.594 8.625 287.188 8.6875 286.812 8.6875C286.5 8.6875 286.208 8.61458 285.938 8.46875C285.667 8.32292 285.354 8.25 285 8.25C284.708 8.25 284.479 8.34375 284.312 8.53125C284.167 8.71875 284.042 8.96875 283.938 9.28125C283.854 9.59375 283.802 9.9375 283.781 10.3125C283.76 10.6875 283.75 11.0625 283.75 11.4375V12.75H285.625Z" fill="#9E9BB2"/>
<path d="M223.938 12.75V7.25C223.938 6.375 223.979 5.52083 224.062 4.6875C224.167 3.85417 224.385 3.11458 224.719 2.46875C225.052 1.80208 225.531 1.27083 226.156 0.875C226.781 0.458333 227.625 0.25 228.688 0.25C229.729 0.25 230.562 0.458333 231.188 0.875C231.812 1.27083 232.281 1.80208 232.594 2.46875C232.927 3.11458 233.135 3.85417 233.219 4.6875C233.323 5.52083 233.375 6.375 233.375 7.25V12.75H235.938C236.479 12.75 237.021 12.7812 237.562 12.8438C238.104 12.8854 238.583 13.0312 239 13.2812C239.438 13.5312 239.781 13.9062 240.031 14.4062C240.302 14.9062 240.438 15.6042 240.438 16.5C240.438 17.3542 240.302 18.0312 240.031 18.5312C239.781 19.0312 239.438 19.4062 239 19.6562C238.583 19.9062 238.104 20.0729 237.562 20.1562C237.021 20.2188 236.479 20.25 235.938 20.25H233.375V31.1875C233.375 31.6042 233.385 32.0521 233.406 32.5312C233.448 32.9896 233.562 33.4167 233.75 33.8125C233.938 34.2083 234.219 34.5417 234.594 34.8125C234.969 35.0625 235.5 35.1875 236.188 35.1875C236.938 35.1875 237.573 35.25 238.094 35.375C238.635 35.4792 239.073 35.6771 239.406 35.9688C239.76 36.2604 240.021 36.6667 240.188 37.1875C240.354 37.7083 240.438 38.375 240.438 39.1875C240.438 40.0208 240.24 40.7396 239.844 41.3438C239.469 41.9479 238.958 42.4479 238.312 42.8438C237.667 43.2396 236.917 43.5312 236.062 43.7188C235.208 43.9062 234.312 44 233.375 44C231.896 44 230.625 43.8438 229.562 43.5312C228.521 43.2188 227.646 42.7812 226.938 42.2188C226.25 41.6354 225.698 40.9479 225.281 40.1562C224.885 39.3438 224.583 38.4375 224.375 37.4375C224.188 36.4375 224.062 35.3646 224 34.2188C223.958 33.0521 223.938 31.8333 223.938 30.5625V20.25H222.188C221.646 20.25 221.104 20.2188 220.562 20.1562C220.042 20.0729 219.573 19.9062 219.156 19.6562C218.74 19.4062 218.396 19.0312 218.125 18.5312C217.875 18.0312 217.75 17.3542 217.75 16.5C217.75 15.6042 217.875 14.9062 218.125 14.4062C218.396 13.9062 218.74 13.5312 219.156 13.2812C219.573 13.0312 220.042 12.8854 220.562 12.8438C221.104 12.7812 221.646 12.75 222.188 12.75H223.938Z" fill="#9E9BB2"/>
<path d="M187.375 24.5C187.375 22.5833 187.635 20.9583 188.156 19.625C188.677 18.2917 189.344 17.1771 190.156 16.2812C190.99 15.3854 191.906 14.6875 192.906 14.1875C193.927 13.6875 194.927 13.3125 195.906 13.0625C196.885 12.8125 197.792 12.6562 198.625 12.5938C199.479 12.5312 200.146 12.5 200.625 12.5C201.104 12.5 201.76 12.5312 202.594 12.5938C203.427 12.6562 204.312 12.8125 205.25 13.0625C206.208 13.3125 207.167 13.6875 208.125 14.1875C209.104 14.6875 209.979 15.3854 210.75 16.2812C211.542 17.1771 212.188 18.2917 212.688 19.625C213.188 20.9583 213.438 22.5833 213.438 24.5V32.25C213.438 34.1667 213.188 35.7917 212.688 37.125C212.188 38.4583 211.542 39.5729 210.75 40.4688C209.979 41.3646 209.104 42.0625 208.125 42.5625C207.167 43.0625 206.208 43.4375 205.25 43.6875C204.312 43.9375 203.427 44.0938 202.594 44.1562C201.76 44.2188 201.104 44.25 200.625 44.25C200.146 44.25 199.479 44.2188 198.625 44.1562C197.792 44.0938 196.885 43.9375 195.906 43.6875C194.927 43.4375 193.927 43.0625 192.906 42.5625C191.906 42.0625 190.99 41.3646 190.156 40.4688C189.344 39.5729 188.677 38.4583 188.156 37.125C187.635 35.7917 187.375 34.1667 187.375 32.25V24.5ZM197 34.4375C197.021 35.0417 197.167 35.5729 197.438 36.0312C197.667 36.4479 198.021 36.8229 198.5 37.1562C199 37.4688 199.708 37.625 200.625 37.625C201.5 37.625 202.167 37.4688 202.625 37.1562C203.104 36.8229 203.458 36.4479 203.688 36.0312C203.938 35.5729 204.083 35.0417 204.125 34.4375V23.125C204.083 22.5 203.938 21.9271 203.688 21.4062C203.458 20.9896 203.104 20.6042 202.625 20.25C202.167 19.875 201.5 19.6875 200.625 19.6875C199.708 19.6875 199 19.875 198.5 20.25C198.021 20.6042 197.667 20.9896 197.438 21.4062C197.167 21.9271 197.021 22.5 197 23.125V34.4375Z" fill="#9E9BB2"/>
<path d="M181.312 36.875C181.312 37.7708 181.26 38.6458 181.156 39.5C181.052 40.3542 180.823 41.1146 180.469 41.7812C180.135 42.4479 179.646 42.9896 179 43.4062C178.375 43.8021 177.521 44 176.438 44C175.375 44 174.531 43.8021 173.906 43.4062C173.281 42.9896 172.802 42.4479 172.469 41.7812C172.135 41.1146 171.917 40.3542 171.812 39.5C171.729 38.6458 171.688 37.7708 171.688 36.875V24.6875C171.688 24.1042 171.656 23.5312 171.594 22.9688C171.552 22.4062 171.438 21.9167 171.25 21.5C171.062 21.0625 170.781 20.7188 170.406 20.4688C170.052 20.1979 169.562 20.0625 168.938 20.0625C168.083 20.0625 167.396 20.3438 166.875 20.9062C166.354 21.4688 165.938 22.2396 165.625 23.2188C165.333 24.1979 165.135 25.3542 165.031 26.6875C164.927 28 164.875 29.4167 164.875 30.9375V36.875C164.875 37.7708 164.823 38.6458 164.719 39.5C164.615 40.3542 164.385 41.1146 164.031 41.7812C163.698 42.4479 163.208 42.9896 162.562 43.4062C161.938 43.8021 161.083 44 160 44C158.938 44 158.094 43.8021 157.469 43.4062C156.844 42.9896 156.365 42.4479 156.031 41.7812C155.698 41.1146 155.479 40.3542 155.375 39.5C155.292 38.6458 155.25 37.7708 155.25 36.875V19.8125C155.25 18.9167 155.281 18.0521 155.344 17.2188C155.406 16.3646 155.594 15.6146 155.906 14.9688C156.219 14.3021 156.688 13.7708 157.312 13.375C157.958 12.9583 158.854 12.75 160 12.75C161.146 12.75 162.042 12.9479 162.688 13.3438C163.333 13.7188 163.812 14.1771 164.125 14.7188C164.458 15.2604 164.667 15.8333 164.75 16.4375C164.833 17.0417 164.875 17.5625 164.875 18C165.042 17.3958 165.302 16.7812 165.656 16.1562C166.01 15.5312 166.458 14.9688 167 14.4688C167.562 13.9688 168.229 13.5625 169 13.25C169.771 12.9167 170.667 12.75 171.688 12.75C172.833 12.75 173.979 12.9375 175.125 13.3125C176.271 13.6875 177.302 14.3125 178.219 15.1875C179.135 16.0625 179.875 17.2083 180.438 18.625C181.021 20.0417 181.312 21.7917 181.312 23.875V36.875Z" fill="#9E9BB2"/>
<path d="M123.562 26.1875C123.562 26.5208 123.542 26.9167 123.5 27.375C123.458 27.8125 123.292 28.2396 123 28.6562C122.729 29.0521 122.292 29.3958 121.688 29.6875C121.083 29.9792 120.229 30.125 119.125 30.125H106.688V33.125C106.688 33.625 106.75 34.1458 106.875 34.6875C107 35.2292 107.208 35.7292 107.5 36.1875C107.812 36.6458 108.219 37.0208 108.719 37.3125C109.219 37.6042 109.833 37.75 110.562 37.75C111.396 37.75 112.031 37.6562 112.469 37.4688C112.927 37.2604 113.281 37.0104 113.531 36.7188C113.802 36.4271 114.042 36.1146 114.25 35.7812C114.458 35.4479 114.729 35.1354 115.062 34.8438C115.417 34.5521 115.896 34.3125 116.5 34.125C117.125 33.9167 117.979 33.8125 119.062 33.8125C119.583 33.8125 120.083 33.8542 120.562 33.9375C121.062 34.0208 121.5 34.1771 121.875 34.4062C122.25 34.6354 122.552 34.9583 122.781 35.375C123.01 35.7708 123.125 36.2917 123.125 36.9375C123.125 38.2917 122.698 39.4271 121.844 40.3438C120.99 41.2396 119.917 41.9583 118.625 42.5C117.333 43.0417 115.927 43.4271 114.406 43.6562C112.906 43.8854 111.5 44 110.188 44C108.458 43.9792 106.812 43.7604 105.25 43.3438C103.688 42.9271 102.302 42.2604 101.094 41.3438C99.9062 40.4271 98.9583 39.2292 98.25 37.75C97.5417 36.2708 97.1875 34.4583 97.1875 32.3125V25C97.1875 23.0208 97.4167 21.3438 97.875 19.9688C98.3542 18.5938 98.9688 17.4479 99.7188 16.5312C100.469 15.6146 101.312 14.9062 102.25 14.4062C103.188 13.8854 104.135 13.5 105.094 13.25C106.052 13 106.958 12.8438 107.812 12.7812C108.688 12.7188 109.438 12.6875 110.062 12.6875C112.167 12.6875 113.958 12.875 115.438 13.25C116.938 13.625 118.188 14.1146 119.188 14.7188C120.188 15.3229 120.979 16.0208 121.562 16.8125C122.146 17.6042 122.583 18.4271 122.875 19.2812C123.167 20.1146 123.354 20.9688 123.438 21.8438C123.521 22.6979 123.562 23.5 123.562 24.25V26.1875ZM106.688 25.4375H114.5C114.5 24.4583 114.469 23.5938 114.406 22.8438C114.365 22.0729 114.208 21.4271 113.938 20.9062C113.688 20.3854 113.281 19.9896 112.719 19.7188C112.177 19.4479 111.396 19.3125 110.375 19.3125C109.521 19.3125 108.844 19.4479 108.344 19.7188C107.865 19.9896 107.5 20.3333 107.25 20.75C107 21.1458 106.844 21.5729 106.781 22.0312C106.719 22.4896 106.688 22.8958 106.688 23.25V25.4375Z" fill="#9E9BB2"/>
<path d="M90.5625 44.9375C90.5625 46.8125 90.3021 48.3958 89.7812 49.6875C89.2812 50.9792 88.6354 52.0521 87.8438 52.9062C87.0521 53.7604 86.1667 54.4271 85.1875 54.9062C84.2292 55.3854 83.2812 55.7396 82.3438 55.9688C81.4271 56.2188 80.5833 56.3646 79.8125 56.4062C79.0417 56.4688 78.4583 56.5 78.0625 56.5C76.5833 56.5 75.1042 56.3958 73.625 56.1875C72.1458 55.9792 70.7917 55.5938 69.5625 55.0312C68.3542 54.4688 67.3438 53.7083 66.5312 52.75C65.7396 51.7917 65.2917 50.5625 65.1875 49.0625C65.1875 48.8125 65.2292 48.5312 65.3125 48.2188C65.3958 47.9062 65.5833 47.6042 65.875 47.3125C66.1667 47.0417 66.6042 46.8021 67.1875 46.5938C67.7708 46.4062 68.5625 46.3125 69.5625 46.3125C70.7708 46.3125 71.6979 46.4062 72.3438 46.5938C72.9896 46.8021 73.4688 47.0417 73.7812 47.3125C74.0938 47.6042 74.2917 47.9062 74.375 48.2188C74.4792 48.5521 74.5833 48.8542 74.6875 49.125C74.8542 49.5625 75.1771 49.8646 75.6562 50.0312C76.1562 50.2188 76.8333 50.3125 77.6875 50.3125C78.4583 50.3125 79.0625 50.1354 79.5 49.7812C79.9583 49.4271 80.3021 49 80.5312 48.5C80.7604 48.0208 80.9062 47.5208 80.9688 47C81.0312 46.5 81.0625 46.0833 81.0625 45.75V38.75C80.875 39.375 80.6042 40 80.25 40.625C79.9167 41.25 79.4792 41.8125 78.9375 42.3125C78.3958 42.8125 77.7396 43.2188 76.9688 43.5312C76.2188 43.8438 75.3333 44 74.3125 44C73.1667 44 72.0208 43.8125 70.875 43.4375C69.7292 43.0625 68.6875 42.4479 67.75 41.5938C66.8333 40.7188 66.0833 39.5729 65.5 38.1562C64.9167 36.7396 64.625 34.9792 64.625 32.875V23.8125C64.625 21.75 64.9167 20.0208 65.5 18.625C66.0833 17.2083 66.8333 16.0625 67.75 15.1875C68.6875 14.3125 69.7292 13.6875 70.875 13.3125C72.0208 12.9375 73.1667 12.75 74.3125 12.75C75.3333 12.75 76.2188 12.9167 76.9688 13.25C77.7396 13.5625 78.3958 13.9688 78.9375 14.4688C79.4792 14.9688 79.9167 15.5312 80.25 16.1562C80.6042 16.7812 80.875 17.3958 81.0625 18C81.0625 17.5833 81.0938 17.0729 81.1562 16.4688C81.2396 15.8646 81.4375 15.2917 81.75 14.75C82.0625 14.1875 82.5417 13.7188 83.1875 13.3438C83.8333 12.9479 84.7292 12.75 85.875 12.75C87 12.75 87.875 12.9583 88.5 13.375C89.125 13.7708 89.5938 14.3021 89.9062 14.9688C90.2188 15.6354 90.4062 16.3958 90.4688 17.25C90.5312 18.0833 90.5625 18.9375 90.5625 19.8125V44.9375ZM74.3125 32.1875C74.3125 32.7292 74.3333 33.2708 74.375 33.8125C74.4167 34.3542 74.5312 34.8438 74.7188 35.2812C74.9062 35.6979 75.1771 36.0417 75.5312 36.3125C75.9062 36.5625 76.4167 36.6875 77.0625 36.6875C77.875 36.6875 78.5417 36.4271 79.0625 35.9062C79.5833 35.3854 79.9896 34.75 80.2812 34C80.5729 33.2292 80.7708 32.4271 80.875 31.5938C81 30.7396 81.0625 29.9792 81.0625 29.3125C81.0417 27.7292 80.9688 26.3542 80.8438 25.1875C80.7396 24.0208 80.5417 23.0625 80.25 22.3125C79.9583 21.5417 79.5521 20.9792 79.0312 20.625C78.5312 20.25 77.875 20.0625 77.0625 20.0625C76.4167 20.0625 75.9062 20.1979 75.5312 20.4688C75.1771 20.7188 74.9062 21.0625 74.7188 21.5C74.5312 21.9375 74.4167 22.4271 74.375 22.9688C74.3333 23.5104 74.3125 24.0625 74.3125 24.625V32.1875Z" fill="#9E9BB2"/>
<path d="M58.375 36.9375C58.375 37.8125 58.3438 38.6771 58.2812 39.5312C58.2188 40.3646 58.0312 41.1146 57.7188 41.7812C57.4062 42.4479 56.9375 42.9896 56.3125 43.4062C55.6875 43.8021 54.8125 44 53.6875 44C52.5417 44 51.6458 43.8125 51 43.4375C50.3542 43.0417 49.875 42.5729 49.5625 42.0312C49.25 41.4688 49.0521 40.8854 48.9688 40.2812C48.9062 39.6771 48.875 39.1667 48.875 38.75C48.6875 39.3542 48.4167 39.9688 48.0625 40.5938C47.7292 41.2188 47.2917 41.7812 46.75 42.2812C46.2083 42.7812 45.5521 43.1979 44.7812 43.5312C44.0312 43.8438 43.1458 44 42.125 44C40.9792 44 39.8333 43.8125 38.6875 43.4375C37.5417 43.0625 36.5104 42.4375 35.5938 41.5625C34.6771 40.6875 33.9271 39.5521 33.3438 38.1562C32.7812 36.7396 32.5 35 32.5 32.9375V23.875C32.5 21.7917 32.7812 20.0521 33.3438 18.6562C33.9271 17.2396 34.6771 16.1042 35.5938 15.25C36.5104 14.375 37.5417 13.75 38.6875 13.375C39.8333 13 40.9792 12.8125 42.125 12.8125C43.1458 12.8125 44.0312 12.9688 44.7812 13.2812C45.5521 13.5938 46.2083 14 46.75 14.5C47.2917 15 47.7292 15.5625 48.0625 16.1875C48.4167 16.8125 48.6875 17.4375 48.875 18.0625C48.875 17.0208 49.0208 16.1562 49.3125 15.4688C49.6042 14.7812 49.9792 14.2396 50.4375 13.8438C50.8958 13.4271 51.4062 13.1458 51.9688 13C52.5521 12.8333 53.125 12.75 53.6875 12.75C54.7292 12.75 55.5625 12.9583 56.1875 13.375C56.8125 13.7708 57.2812 14.3021 57.5938 14.9688C57.9271 15.6146 58.1354 16.375 58.2188 17.25C58.3229 18.1042 58.375 18.9792 58.375 19.875V36.9375ZM42.125 32.125C42.125 32.6875 42.1458 33.2396 42.1875 33.7812C42.2292 34.3229 42.3438 34.8125 42.5312 35.25C42.7188 35.6875 42.9896 36.0417 43.3438 36.3125C43.7188 36.5625 44.2292 36.6875 44.875 36.6875C45.6875 36.6875 46.3438 36.5104 46.8438 36.1562C47.3646 35.7812 47.7708 35.2188 48.0625 34.4688C48.3542 33.6979 48.5521 32.7396 48.6562 31.5938C48.7812 30.4271 48.8542 29.0417 48.875 27.4375C48.875 26.7917 48.8125 26.0521 48.6875 25.2188C48.5833 24.3646 48.3854 23.5625 48.0938 22.8125C47.8021 22.0625 47.3958 21.4271 46.875 20.9062C46.3542 20.3854 45.6875 20.125 44.875 20.125C44.2292 20.125 43.7188 20.2604 43.3438 20.5312C42.9896 20.7812 42.7188 21.1146 42.5312 21.5312C42.3438 21.9479 42.2292 22.4271 42.1875 22.9688C42.1458 23.4896 42.125 24.0208 42.125 24.5625V32.125Z" fill="#9E9BB2"/>
<path d="M10 26.75V36.875C10 37.7708 9.96875 38.6458 9.90625 39.5C9.86458 40.3542 9.6875 41.1146 9.375 41.7812C9.08333 42.4479 8.61458 42.9896 7.96875 43.4062C7.32292 43.8021 6.39583 44 5.1875 44C4.02083 44 3.11458 43.8021 2.46875 43.4062C1.84375 42.9896 1.38542 42.4479 1.09375 41.7812C0.802083 41.1146 0.625 40.3542 0.5625 39.5C0.520833 38.6458 0.5 37.7708 0.5 36.875V7.375C0.5 6.47917 0.520833 5.60417 0.5625 4.75C0.625 3.89583 0.802083 3.13542 1.09375 2.46875C1.38542 1.80208 1.84375 1.27083 2.46875 0.875C3.11458 0.458333 4.02083 0.25 5.1875 0.25H15.5C18.0833 0.375 20.3958 0.916667 22.4375 1.875C23.3125 2.29167 24.1562 2.8125 24.9688 3.4375C25.8021 4.0625 26.5417 4.83333 27.1875 5.75C27.8542 6.64583 28.3854 7.71875 28.7812 8.96875C29.1771 10.1979 29.375 11.625 29.375 13.25C29.375 15.4792 29.0208 17.4375 28.3125 19.125C27.625 20.7917 26.6146 22.1979 25.2812 23.3438C23.9688 24.4688 22.3542 25.3229 20.4375 25.9062C18.5417 26.4688 16.3958 26.75 14 26.75H10ZM14.25 19.3125C15.2917 19.25 16.2292 19 17.0625 18.5625C17.4167 18.375 17.7604 18.1354 18.0938 17.8438C18.4271 17.5521 18.7292 17.1979 19 16.7812C19.2708 16.3438 19.4792 15.8333 19.625 15.25C19.7917 14.6667 19.875 14 19.875 13.25C19.875 12.5417 19.7917 11.9271 19.625 11.4062C19.4792 10.8646 19.2812 10.4062 19.0312 10.0312C18.7812 9.63542 18.5 9.30208 18.1875 9.03125C17.875 8.76042 17.5521 8.53125 17.2188 8.34375C16.4271 7.94792 15.5417 7.70833 14.5625 7.625H10V19.3125H14.25Z" fill="#9E9BB2"/>
</svg>
